<svg xmlns="http://www.w3.org/2000/svg" width="19" height="16" viewBox="0 0 19 16">
  <path fill="#fff" fill-rule="evenodd" d="M246.94,690.927a0.033,0.033,0,0,0-.011-0.009l-0.006,0-5.731-2.852a0.736,0.736,0,0,0-.279-0.064,0.659,0.659,0,0,0-.556.3l-3.3,5.335,4.14,6.7,5.76-9.312A0.069,0.069,0,0,0,246.94,690.927Zm-11.7,1.493v6.072l5.426,2.7Zm6.241,9.177,4.465,2.221c0.581,0.289,1.052.087,1.052-.452V692.675ZM234.3,690.935l-5.6-2.784a0.632,0.632,0,0,0-.284-0.074,0.437,0.437,0,0,0-.417.5v12.024a1.038,1.038,0,0,0,.526.847l4.93,2.453a0.8,0.8,0,0,0,.355.092,0.547,0.547,0,0,0,.522-0.632V690.99A0.064,0.064,0,0,0,234.3,690.935Z" transform="translate(-228 -688)"/>
</svg>
