<svg xmlns="http://www.w3.org/2000/svg" fill="#ffffff" viewBox="0 0 13.314 8.403"><path d="M2.278 8.117l-.286.286A5.402 5.402 0 0 1 0 4.2C0 2.497.777.997 1.992 0l.286.286C1.446 1.376.928 2.728.928 4.2c0 1.475.518 2.825 1.35 3.917zm1.31-1.624l-.37.355A3.677 3.677 0 0 1 2.13 4.2c0-1.036.396-1.99 1.09-2.645l.37.34c-.45.656-.71 1.433-.71 2.306s.26 1.652.71 2.293zm3.07-.11a2.172 2.172 0 0 1-2.184-2.182c0-1.213.97-2.182 2.183-2.182S8.84 2.988 8.84 4.2a2.172 2.172 0 0 1-2.183 2.184zM9.74 1.897l.34-.34c.696.654 1.105 1.608 1.105 2.645a3.69 3.69 0 0 1-1.104 2.647l-.34-.354c.437-.64.696-1.42.696-2.292s-.26-1.65-.696-2.304zm1.268-1.61L11.322 0a5.405 5.405 0 0 1 1.992 4.2 5.406 5.406 0 0 1-1.992 4.203l-.314-.286c.873-1.09 1.35-2.442 1.35-3.916 0-1.472-.477-2.823-1.35-3.914z"/></svg>